<?xml version="1.0" encoding="UTF-8"?>
<svg id="Layer_1" data-name="Layer 1" xmlns="http://www.w3.org/2000/svg" viewBox="0 0 4229.52 583.45">
  <defs>
    <style>
      .cls-1 {
        fill: #000;
        stroke-width: 0px;
      }
    </style>
  </defs>
  <path class="cls-1" d="M2037.46,145.55v91.67h-66.46v215.79h-109.22v-214.59h-65.23c9.71,33.38,12.57,66.91,5.43,100.96-21.22,101.19-123.79,150.38-215.71,103.37-1.64-.84-3.36-1.5-6.99-3.1v143.81h-106.78V146.86h106.93c.92,4.1,1.84,8.17,3.19,14.18,37.28-22.85,76.77-26.61,117.56-14.99,41.63,11.85,70.91,38.8,92.21,77.26v-77.38h68.56V19.9h109.35v125.65h67.16ZM1695.13,299.78c-.01-36.62-25-62.34-60.52-62.28-35.35.05-60.36,26.25-60.03,62.87.33,36.08,25.08,62.18,59.24,62.44,36.22.28,61.33-25.53,61.32-63.03Z"/>
  <path class="cls-1" d="M1440.42,453.58h-108.22c0-5.47,0-10.53,0-15.6,0-53.74.22-107.47-.12-161.21-.19-29.65-23.22-47.65-52.08-41.57-19.76,4.16-31.49,18.64-31.59,40.5-.26,53.73-.11,107.47-.12,161.21,0,5.17,0,10.34,0,16.27h-109.37c0-5.16,0-10.23,0-15.3,0-53.26.21-106.51-.11-159.77-.16-27.16-15.68-43.2-40.98-43.64-26.25-.46-42.56,14.8-42.73,41.33-.36,53.73-.14,107.47-.15,161.21,0,5.15,0,10.31,0,16.2h-108.42V147.12h107.5c.64,5.26,1.25,10.24,1.93,15.82,58.43-31.93,113.67-34.68,164.75,13.75,33.42-30.61,72.99-41.66,117.01-35.15,58.85,8.71,97.86,44.63,101.68,103.89,4.43,68.67,1.03,137.85,1.03,208.14Z"/>
  <path class="cls-1" d="M2547.32,454h-66.79c-2.4,0-4.8,0-7.2,0-15.84-.01-33.08,3.89-47.11-1.16-13.59-4.89-23.86-18.99-36.43-29.77-30.11,22.18-64.72,36.38-103.66,37.61-60.25,1.91-110.98-16.71-142.02-71.85-33.37-59.3-15.95-134.69,38.98-174.65,4.24-3.09,8.6-6.01,13.55-9.47-.85-2.33-1.31-4.61-2.42-6.5C2139.26,104.67,2209.34-.74,2312.22,0c40.3.29,76.66,11.22,107.23,38.23,7.06,6.24,12.94,13.81,17.02,18.22-23.7,24.85-46.12,48.35-65.88,69.07-15.83-8.61-29.87-18.7-45.53-24.06-15.94-5.46-31.88-.28-42.02,14.31-10.2,14.69-6.56,30.15,3.84,42.66,26.07,31.32,53,61.94,80.06,92.42,56.71,63.88,113.72,127.48,170.59,191.21,2.74,3.07,5.23,6.37,9.78,11.93ZM2255.31,271.62c-20.41,12.25-28.69,29.69-25.48,51.52,2.78,18.83,15.81,33.74,34.78,37.45,20.97,4.11,40.45,1.15,56.39-16.44-22.28-24.6-43.75-48.3-65.7-72.53Z"/>
  <path class="cls-1" d="M0,9.9c76.08,0,151.11-4.06,225.49,1.13,75.68,5.29,125.08,67.2,123.31,142.55-1.79,76.58-53.67,132.62-130.08,138.71-29.1,2.32-58.45,1.49-87.68,2.05-5.7.11-11.41.02-19.2.02v158.86H0V9.9ZM111.96,208.8c27.88,0,54.31,2.06,80.26-.58,25.92-2.63,42.19-24.39,44.46-52.48,2.28-28.12-11.28-54.83-36.52-59.73-28.53-5.54-58.29-4.75-88.21-6.75v119.54Z"/>
  <path class="cls-1" d="M2737.53,453.37h-111.48V8.13c3.55-.25,6.77-.67,9.99-.67,62.36-.04,124.72-.1,187.08.01,26.73.05,52.45,5.27,76.42,17.35,57.33,28.9,85.3,88.7,72.73,154.87-11.9,62.64-60.24,106.9-125.15,112.35-29.56,2.48-59.4,1.66-89.12,2.28-6.16.13-12.33.02-20.48.02v159.02ZM2738.05,208.6c27.86,0,54.79,2.28,81.15-.64,26.13-2.89,41.86-25.25,43.07-53.31,1.3-30.2-12.39-55.19-38.53-59.69-27.83-4.79-56.67-3.75-85.69-5.28v118.92Z"/>
  <path class="cls-1" d="M3189.18,435.03c-64.31,44.59-147.96,25.67-189.85-25.62-54.11-66.25-47.22-178.54,15.45-234.64,45.33-40.58,115.88-46.52,167.1-14.07,1.93,1.22,3.88,2.4,7.09,4.38.58-6.91,1.04-12.36,1.54-18.29h105.78v306.21h-105.89c-.37-5.42-.74-10.92-1.22-17.98ZM3073.91,300.51c.14,36.87,25.24,62.61,60.76,62.32,34.89-.29,59.25-25.71,59.56-62.15.31-36.75-24.76-63.15-60.03-63.18-34.99-.03-60.43,26.56-60.29,63.02Z"/>
  <path class="cls-1" d="M757.55,137.94c81.15,1.14,147.31,48.34,166.34,119.58,25.53,95.58-39.75,190.8-138.14,201.73-53.75,5.97-103.69-3.11-145.35-39.63-49.89-43.74-65.64-99.73-49.02-162.86,16.75-63.62,62.13-99.27,124.86-113.8,13.44-3.11,27.52-3.42,41.31-5.02ZM817.67,300.12c.07-37.5-24.02-62.94-59.75-63.09-36.31-.15-61.31,25.74-61.27,63.44.04,37.08,24.54,62.89,60.12,63.32,36.21.44,60.83-25.29,60.9-63.67Z"/>
  <path class="cls-1" d="M4010.87,335.33c4.33,45.66,85.62,70.17,137.74,18.73,18.55,18.6,37.11,37.19,56.03,56.16-14.38,17.01-33.12,30.11-55.12,38.02-52.32,18.82-104.7,18.05-155.6-4.3-63.47-27.86-99.44-91.7-91.87-159.56,8.05-72.19,57.68-128.19,127.35-141.39,58.06-11,112.35-2.76,156.23,40.51,39.8,39.25,49.65,88.03,40.99,141.89-1.57,9.74-7.52,9.31-14.49,9.32-59.5.15-118.99.4-178.49.61-7.55.03-15.1,0-22.77,0ZM4126.86,263.71c-4.53-29.23-25.14-46.22-55.23-46.36-31.15-.14-56.41,18.82-60.85,46.36h116.08Z"/>
  <path class="cls-1" d="M3327.26,146.51h107.05c.3,5.98.81,11.51.81,17.04.07,52.78-.29,105.57.19,158.35.29,32.16,21.03,49.37,50.1,42.86,18.8-4.21,29.49-18.87,29.59-42.01.23-53.26.08-106.53.09-159.79,0-5.15,0-10.29,0-16.21h109.35c0,5.37,0,10.44,0,15.51,0,50.39-1.73,100.84.38,151.14,3.84,91.7-63.08,150.72-155.92,147.38-14.71-.53-29.71-2.87-43.88-6.84-58.98-16.52-96.67-62.22-98.64-123.38-1.92-59.44-.49-118.99-.47-178.49,0-1.36.64-2.72,1.35-5.56Z"/>
  <path class="cls-1" d="M3623.22,404.37c21.21-19.96,41.08-38.67,61.71-58.09,19.86,18.51,44.99,29.96,74.37,30.9,6.18.2,12.95.73,18.45-1.43,5.52-2.16,13.56-7.36,13.71-11.47.19-5.59-4.79-13.36-9.85-16.66-7.39-4.81-16.8-6.54-25.4-9.45-19.02-6.42-38.39-11.96-57.06-19.28-66.3-25.98-66.18-118.06-16.3-154.14,21.22-15.35,44.66-24.13,70.33-26.74,39.39-4.01,77.86.52,113.24,19.02,15.78,8.25,29.57,20.33,44.92,31.14-22.49,21.55-42.52,40.73-63.63,60.95-14.5-15.05-34.57-25.25-58.4-26.96-5.22-.38-11.13-1.34-15.6.57-6.33,2.71-11.63,7.84-17.37,11.93,4.26,5.6,7.41,13.27,13.05,16.32,9.09,4.92,19.97,6.39,29.83,10.03,18.8,6.94,38.68,12.18,55.88,22.03,60.06,34.37,61.38,121.39,2.38,157.76-45.44,28.01-94.94,26.84-144.62,13.84-33.26-8.7-63.49-23.75-89.63-50.27Z"/>
  <path class="cls-1" d="M476.61,453.28h-108.57V147.05h107.74c.46,5.07.92,10.19,1.59,17.6,22.08-16.28,46.09-24.21,72.36-24.69,25.92-.48,50.53,2.98,70.46,23.39-21.16,28.27-41.73,55.76-62.12,83.01-7.61-3.29-13.85-6.96-20.6-8.75-34.45-9.14-59.9,9.15-60.5,44.78-.86,51.29-.31,102.61-.37,153.92,0,5.2,0,10.41,0,16.98Z"/>
</svg>