<svg width="24" height="24" viewBox="0 0 24 24" fill="none" xmlns="http://www.w3.org/2000/svg">
<path d="M13.5499 20.16C13.2899 20.27 13.0099 20.37 12.7099 20.47L11.1299 20.99C7.15985 22.27 5.06985 21.2 3.77985 17.23L2.49985 13.28C1.21985 9.31004 2.27985 7.21004 6.24985 5.93004L7.78985 5.42004C7.59985 5.90004 7.43985 6.45004 7.28985 7.07004L6.30985 11.26C5.20985 15.97 6.81985 18.57 11.5299 19.69L13.2099 20.09C13.3199 20.12 13.4399 20.14 13.5499 20.16Z" fill="#191D31"/>
<path d="M17.1702 3.21001L15.5002 2.82001C12.1602 2.03001 10.1702 2.68001 9.00018 5.10001C8.70018 5.71001 8.46018 6.45001 8.26018 7.30001L7.28018 11.49C6.30018 15.67 7.59018 17.73 11.7602 18.72L13.4402 19.12C14.0202 19.26 14.5602 19.35 15.0602 19.39C18.1802 19.69 19.8402 18.23 20.6802 14.62L21.6602 10.44C22.6402 6.26001 21.3602 4.19001 17.1702 3.21001Z" fill="#191D31"/>
</svg>
