<svg width="24" height="24" viewBox="0 0 24 24" fill="none" xmlns="http://www.w3.org/2000/svg">
<path d="M20.0199 10.7L17.8999 12.04C17.4999 12.29 16.9899 12.23 16.6599 11.9L12.1299 7.37C11.7999 7.04 11.7399 6.53 11.9899 6.13L13.3299 4.01C14.1499 2.72 15.7899 2.66 16.9999 3.86L20.1799 7.04C21.2999 8.17 21.2299 9.93 20.0199 10.7Z" fill="#191D31"/>
<path d="M14.7099 19.95L5.9899 20.97C5.91223 20.9804 5.83556 20.9877 5.75996 20.9921C5.07483 21.0325 4.90495 20.2249 5.39025 19.7396L7.9799 17.15C8.2999 16.84 8.2999 16.35 7.9799 16.04C7.6799 15.73 7.1899 15.73 6.8699 16.04L4.28025 18.6297C3.79495 19.115 2.99483 18.9444 3.03124 18.259C3.03506 18.1871 3.04126 18.1141 3.0499 18.04L4.0799 9.32C4.3399 7.14 5.1399 6.42 7.4399 6.56L8.9399 6.65C9.4299 6.68 9.8899 6.89 10.2399 7.24L16.7899 13.79C17.1399 14.14 17.3499 14.6 17.3699 15.09L17.4599 16.59C17.6899 18.9 16.8999 19.7 14.7099 19.95Z" fill="#191D31"/>
</svg>
