<svg width="24" height="24" viewBox="0 0 24 24" fill="none" xmlns="http://www.w3.org/2000/svg">
<path d="M19.0798 15.7201C18.4898 12.1901 15.0998 9.32007 11.5198 9.32007C7.62979 9.32007 4.20979 12.4701 3.87979 16.3501C3.74979 17.8501 4.22979 19.2701 5.21979 20.3401C6.19979 21.4101 7.57979 22.0001 9.07979 22.0001H13.7598C15.4498 22.0001 16.9298 21.3401 17.9398 20.1501C18.9498 18.9601 19.3498 17.3801 19.0798 15.7201Z" fill="#191D31"/>
<path d="M10.2801 7.86C11.8983 7.86 13.2101 6.54819 13.2101 4.93C13.2101 3.31181 11.8983 2 10.2801 2C8.6619 2 7.3501 3.31181 7.3501 4.93C7.3501 6.54819 8.6619 7.86 10.2801 7.86Z" fill="#191D31"/>
<path d="M16.94 9.0299C18.2876 9.0299 19.38 7.93748 19.38 6.5899C19.38 5.24233 18.2876 4.1499 16.94 4.1499C15.5924 4.1499 14.5 5.24233 14.5 6.5899C14.5 7.93748 15.5924 9.0299 16.94 9.0299Z" fill="#191D31"/>
<path d="M20.5501 12.93C21.6271 12.93 22.5001 12.057 22.5001 10.98C22.5001 9.90307 21.6271 9.03003 20.5501 9.03003C19.4731 9.03003 18.6001 9.90307 18.6001 10.98C18.6001 12.057 19.4731 12.93 20.5501 12.93Z" fill="#191D31"/>
<path d="M3.94 10.9801C5.28757 10.9801 6.38 9.88767 6.38 8.5401C6.38 7.19252 5.28757 6.1001 3.94 6.1001C2.59243 6.1001 1.5 7.19252 1.5 8.5401C1.5 9.88767 2.59243 10.9801 3.94 10.9801Z" fill="#191D31"/>
</svg>
