<svg width="24" height="24" viewBox="0 0 24 24" fill="none" xmlns="http://www.w3.org/2000/svg">
<path d="M11.42 19.25H8.69C6 19.25 4.75 18 4.75 15.31V12.58C4.75 9.89999 6 8.64999 8.69 8.64999H11.42C14.1 8.64999 15.36 9.89999 15.36 12.59V15.32C15.35 18 14.1 19.25 11.42 19.25ZM8.69 10.15C6.82 10.15 6.25 10.72 6.25 12.59V15.32C6.25 17.19 6.82 17.76 8.69 17.76H11.42C13.29 17.76 13.86 17.19 13.86 15.32V12.59C13.86 10.72 13.29 10.15 11.42 10.15H8.69Z" fill="#191D31"/>
<path d="M15.31 15.35H14.6C14.19 15.35 13.85 15.01 13.85 14.6V12.58C13.85 10.71 13.28 10.14 11.41 10.14H9.40002C8.99002 10.14 8.65002 9.8 8.65002 9.39V8.69C8.65002 6.01 9.90002 4.75 12.59 4.75H15.32C18 4.75 19.26 6 19.26 8.69V11.42C19.25 14.1 18 15.35 15.31 15.35ZM10.15 8.65H11.42C14.1 8.65 15.36 9.9 15.36 12.59V13.86C17.2 13.85 17.76 13.28 17.76 11.42V8.69C17.76 6.82 17.19 6.25 15.32 6.25H12.59C10.73 6.25 10.16 6.81 10.15 8.65Z" fill="#191D31"/>
<path d="M14.9999 22.75C14.7299 22.75 14.4799 22.6 14.3499 22.37C14.2199 22.13 14.2199 21.85 14.3599 21.61L15.4099 19.86C15.6199 19.5 16.0799 19.39 16.4399 19.6C16.7999 19.81 16.9099 20.27 16.6999 20.63L16.4299 21.08C19.1899 20.43 21.2599 17.95 21.2599 14.99C21.2599 14.58 21.5999 14.24 22.0099 14.24C22.4199 14.24 22.7599 14.58 22.7599 14.99C22.7499 19.27 19.2699 22.75 14.9999 22.75Z" fill="#191D31"/>
<path d="M2 9.75C1.59 9.75 1.25 9.41 1.25 9C1.25 4.73 4.73 1.25 9 1.25C9.27 1.25 9.52 1.4 9.65 1.63C9.78 1.87 9.78 2.15 9.64 2.39L8.59 4.14C8.38 4.49 7.92 4.61 7.56 4.39C7.21 4.18 7.09 3.72 7.31 3.36L7.58 2.91C4.81 3.56 2.75 6.04 2.75 9C2.75 9.41 2.41 9.75 2 9.75Z" fill="#191D31"/>
</svg>
