<svg width="24" height="24" viewBox="0 0 24 24" fill="none" xmlns="http://www.w3.org/2000/svg">
<path d="M18.61 6.68001C18.2 6.68001 17.86 6.34001 17.86 5.93001V4.42001C17.86 3.82001 17.37 3.32001 16.76 3.32001H3.82999C3.22999 3.32001 2.72999 3.81001 2.72999 4.42001V5.93001C2.72999 6.34001 2.38999 6.68001 1.97999 6.68001C1.56999 6.68001 1.23999 6.34001 1.23999 5.93001V4.42001C1.23999 2.99001 2.40999 1.82001 3.83999 1.82001H16.76C18.19 1.82001 19.36 2.98001 19.36 4.42001V5.93001C19.36 6.34001 19.02 6.68001 18.61 6.68001Z" fill="#191D31"/>
<path d="M10.3 18.85C9.88999 18.85 9.54999 18.51 9.54999 18.1V3.32001C9.54999 2.91001 9.88999 2.57001 10.3 2.57001C10.71 2.57001 11.05 2.91001 11.05 3.32001V18.1C11.05 18.52 10.71 18.85 10.3 18.85Z" fill="#191D31"/>
<path d="M12.48 18.85H6.90002C6.49002 18.85 6.15002 18.51 6.15002 18.1C6.15002 17.69 6.49002 17.35 6.90002 17.35H12.48C12.89 17.35 13.23 17.69 13.23 18.1C13.23 18.51 12.89 18.85 12.48 18.85Z" fill="#191D31"/>
<path d="M22.01 13.2C21.6 13.2 21.26 12.86 21.26 12.45V11.65C21.26 11.34 21 11.08 20.69 11.08H13.68C13.27 11.08 12.93 10.74 12.93 10.33C12.93 9.92002 13.27 9.58002 13.68 9.58002H20.69C21.83 9.58002 22.76 10.51 22.76 11.65V12.45C22.76 12.87 22.43 13.2 22.01 13.2Z" fill="#191D31"/>
<path d="M16.08 22.18C15.67 22.18 15.33 21.84 15.33 21.43V10.87C15.33 10.46 15.67 10.12 16.08 10.12C16.49 10.12 16.83 10.46 16.83 10.87V21.43C16.83 21.84 16.49 22.18 16.08 22.18Z" fill="#191D31"/>
<path d="M18.22 22.18H13.94C13.53 22.18 13.19 21.84 13.19 21.43C13.19 21.02 13.53 20.68 13.94 20.68H18.22C18.63 20.68 18.97 21.02 18.97 21.43C18.97 21.84 18.63 22.18 18.22 22.18Z" fill="#191D31"/>
</svg>
