<?xml version="1.0" encoding="UTF-8"?>
<svg id="Layer_1" data-name="Layer 1" xmlns="http://www.w3.org/2000/svg" viewBox="0 0 14.52 14.52">
  <defs>
    <style>
      .cls-1 {
        fill: #efecdc;
      }
    </style>
  </defs>
  <circle class="cls-1" cx="7.26" cy="7.26" r="7.26"/>
  <g>
    <path d="M5.38,7.15s0,.04-.01.06h.05s.95,0,.95,0c.13,0,.25-.02.37-.06s.21-.09.3-.16c.22-.17.32-.47.31-.74,0-.12-.05-.24-.15-.32-.14-.12-.39-.16-.57-.16h-.25s-1.12,0-1.12,0h-.43s-.2,0-.2,0c0,.02.02.02.03.03l.24.18.25.19.07.05c-.07.04-.13.09-.2.13l-.2.13-.3.19-.47.3-.67.43-.81.52-.11.07s-.01,0-.02,0c0,0,0-.01,0-.01l.21-.33.74-1.16.16-.24.1-.16.04-.05s0-.03,0-.04l-.16-.14-.29-.25-.15-.13-.44-.37-.18-.15-.14-.12-.21-.18-.42-.35s-.04-.02-.05-.05h1.03s.35,0,.35,0h.05s.06,0,.06,0h.06s1.3,0,1.3,0h2.14s.33,0,.33,0c.06,0,.12,0,.18,0,.53.03,1.07.19,1.46.55.08.07.15.15.21.24.08.11.14.22.18.34.06.17.09.35.1.54,0,.09,0,.18-.01.28-.04.33-.12.61-.27.91-.14.27-.35.55-.59.76-.51.44-1.15.69-1.84.75-.14.01-.26.02-.4.02h-.95s-.04,0-.05,0c0,.03-.02.05-.02.08l-.36,1.41s-.01.03-.02.04h-.44s-1.28,0-1.28,0c0,0-.01,0-.01,0l.04-.17.11-.43.45-1.77.07-.29s.03-.02.03-.02l.47-.3.41-.26.27-.17.22-.14.62-.41h.02s-.04.17-.04.17l-.18.73Z"/>
    <path d="M6.94,8.77c.48-.1.94-.31,1.32-.6.26-.2.48-.44.65-.7.06-.09.1-.17.14-.26h.12s.28,0,.28,0h.56c.15,0,.29-.03.43-.07.26-.09.45-.26.55-.5.04-.1.08-.27.07-.37-.01-.17-.07-.31-.24-.4-.21-.11-.47-.1-.71-.1h-.78c-.05-.35-.18-.68-.43-.95-.1-.11-.21-.2-.33-.28s-.25-.15-.39-.21c0-.01.02-.01.04-.01.04,0,.1-.01.11-.01h.85s1.35,0,1.35,0c.18,0,.35,0,.53.02.47.05.89.18,1.25.48.26.21.43.5.5.81.03.14.05.28.04.42,0,.29-.06.56-.16.83-.06.17-.14.33-.24.49-.1.17-.23.31-.37.45-.21.21-.46.38-.73.51-.38.18-.78.3-1.2.34-.16.02-.32.03-.48.03h-.53c-.06,0-.11,0-.17,0h-.25c-.02.06-.03.13-.05.19l-.29,1.14-.06.21h-.99s-.73,0-.73,0c0,0-.02,0-.02,0,0,0,0-.01,0-.02l.35-1.43Z"/>
    <path d="M6.16,6.87l.15-.33s.01-.03.02-.06c0,0,0,0,0-.01,0-.03-.08-.36-.1-.41-.01-.04-.03-.07-.04-.11l.13.08.04.02.19.12.45.29s-.03.02-.04.03l-.1.06-.62.34-.12.06s0-.05.02-.08Z"/>
    <path d="M6.72,6.62s.09-.05.14-.06l.15-.09s-.02-.03-.04-.04l-.09-.06-.58-.37-.11-.07s0,.05.02.09l.13.35s.01.03.02.06c0,0,0,0,0,.01,0,.03-.1.37-.12.41,0,0,0,0,0,.01.05-.04.11-.07.18-.06,0-.01.01-.02.02-.04.01-.02.02-.04.05-.05.02-.01.05-.01.08,0,.05-.04.11-.06.16-.08Z"/>
    <path d="M10.35,6.98h-.22s-.03,0-.04-.01c0,0-.01-.03-.01-.04l.08-.45.08-.44s.01-.04.02-.06c.09,0,.18,0,.27,0,.02,0,.04.02.03.04l-.05.3-.1.61s-.02.05-.06.05Z"/>
    <path d="M9.8,6.95s-.03.04-.05.04h-.21s-.05-.02-.05-.05l.02-.13.13-.78s.03-.05.06-.05h.22s.03,0,.03.01c0,0,.01.03.01.04l-.03.17-.11.6s-.02.09-.03.14Z"/>
  </g>
</svg>