<?xml version="1.0" encoding="UTF-8"?>
<svg id="Layer_1" data-name="Layer 1" xmlns="http://www.w3.org/2000/svg" viewBox="0 0 13.58 7.7">
  <path d="M4.51,3.71s-.01.05-.02.08h.06s1.16,0,1.16,0c.16,0,.3-.03.45-.08s.26-.12.37-.21c.26-.23.39-.62.38-.95,0-.16-.06-.31-.18-.41-.17-.16-.47-.21-.69-.21h-.3s-1.36,0-1.36,0h-.52s-.24,0-.24,0c0,.03.02.03.04.04l.3.24.31.24.09.07c-.09.06-.16.11-.24.17l-.25.17-.36.25-.57.39-.81.56-.98.68-.13.1s-.02,0-.02,0c0,0,0-.01,0-.02l.25-.42.89-1.5.19-.32.13-.21.04-.07s.01-.04,0-.05l-.19-.18-.35-.32-.18-.16-.54-.48-.22-.2-.17-.15-.26-.23L.07.07S.02.04,0,0h1.25s.43,0,.43,0h.06s.07,0,.07,0h.07S3.47,0,3.47,0h2.6s.4,0,.4,0c.07,0,.14,0,.22,0,.65.04,1.3.25,1.78.71.1.1.18.2.26.31.1.14.16.29.22.45.08.23.11.46.12.7,0,.12,0,.24-.02.36-.05.42-.15.79-.33,1.18-.17.35-.43.72-.71.98-.62.57-1.4.9-2.24.98-.16.02-.32.03-.48.03h-1.16s-.05,0-.06.01c-.01.04-.02.07-.03.11l-.44,1.83s-.01.04-.03.05h-.54s-1.55,0-1.55,0c0,0-.02,0-.02-.01l.05-.21.13-.55.54-2.3.09-.37s.03-.02.04-.03l.57-.39.49-.34.33-.23.27-.18.76-.53h.03s-.05.22-.05.22l-.22.94Z"/>
  <path d="M6.4,5.81c.59-.13,1.14-.4,1.6-.77.32-.26.58-.57.79-.91.07-.11.12-.23.18-.34h.14s.34,0,.34,0h.68c.18,0,.35-.03.52-.09.32-.11.55-.33.67-.65.05-.13.09-.35.08-.48-.02-.23-.08-.41-.29-.52-.26-.14-.57-.13-.86-.13h-.94c-.06-.46-.22-.88-.52-1.24-.12-.14-.25-.26-.4-.37s-.31-.19-.48-.27c0-.02.02-.02.04-.02.04,0,.12-.01.13-.01h1.03S10.76,0,10.76,0c.22,0,.43,0,.65.03.57.06,1.08.24,1.52.62.31.27.52.65.61,1.05.04.18.06.36.05.55,0,.37-.08.73-.19,1.08-.08.23-.17.43-.29.64-.13.21-.28.41-.45.59-.26.27-.55.49-.88.66-.46.24-.95.39-1.46.44-.2.02-.38.04-.58.04h-.65c-.07,0-.14,0-.21,0h-.3c-.03.08-.04.16-.06.25l-.35,1.48-.07.27h-1.2s-.88,0-.88,0c0,0-.02,0-.03,0,0,0,0-.02,0-.03l.43-1.86Z"/>
  <path d="M5.45,3.35l.19-.43s.02-.04.02-.07c0,0,0,0,0-.02,0-.03-.1-.47-.12-.53-.02-.05-.03-.1-.04-.14l.16.11.05.03.23.16.55.38s-.03.03-.05.04l-.12.07-.75.44-.14.08c-.05.03,0-.07.03-.11Z"/>
  <path d="M6.13,3.02c.06-.03.11-.06.17-.08l.18-.12s-.03-.03-.05-.05l-.11-.08-.7-.48-.13-.09s0,.07.02.11l.15.45s.01.04.02.08c0,0,0,0,0,.02,0,.04-.12.48-.14.54,0,0,0,.01,0,.02.07-.05.14-.09.22-.08,0-.02.02-.03.03-.05.02-.03.03-.05.06-.07.03-.02.06-.02.09-.01.06-.05.13-.07.19-.11Z"/>
  <path d="M10.55,3.49h-.27s-.04,0-.04-.02c0-.01-.02-.04-.01-.05l.1-.59.09-.56s.01-.05.03-.08c.11,0,.21,0,.32,0,.03,0,.04.03.04.06l-.06.39-.13.79s-.03.06-.07.06Z"/>
  <path d="M9.88,3.44s-.03.05-.06.05h-.26s-.07-.03-.06-.07l.03-.16.16-1.01s.04-.06.07-.06h.27s.03,0,.04.02c0,0,.02.04.02.05l-.04.23-.13.78c-.01.06-.02.12-.04.19Z"/>
</svg>