<svg width="24" height="24" viewBox="0 0 24 24" fill="none" xmlns="http://www.w3.org/2000/svg">
<path d="M15.96 10.8301H12.9L12.14 13.1201H14.43C15.27 13.1201 15.96 13.8001 15.96 14.6501C15.96 15.4901 15.28 16.1801 14.43 16.1801H12.14" stroke="#191D31" stroke-width="1.5" stroke-linecap="round" stroke-linejoin="round"/>
<path d="M9.53998 16.17V10.8301L8.03998 12.5001" stroke="#191D31" stroke-width="1.5" stroke-linecap="round" stroke-linejoin="round"/>
<path d="M13.98 4.46997L12 2" stroke="#191D31" stroke-width="1.5" stroke-linecap="round" stroke-linejoin="round"/>
<path d="M19.09 7.79999C20.2 9.27999 20.89 11.11 20.89 13.11C20.89 18.02 16.91 22 12 22C7.09 22 3.10999 18.02 3.10999 13.11C3.10999 8.19999 7.09 4.21997 12 4.21997C12.68 4.21997 13.34 4.31002 13.98 4.46002" stroke="#191D31" stroke-width="1.5" stroke-linecap="round" stroke-linejoin="round"/>
</svg>
